<svg width="24" height="24" viewBox="0 0 24 24" fill="none" xmlns="http://www.w3.org/2000/svg">
<g id="Frame">
<path id="Vector" d="M11.8312 1.39648C6.03042 1.39648 1.32886 6.09805 1.32886 11.8988C1.32886 17.6996 6.03042 22.4012 11.8312 22.4012C17.632 22.4012 22.3335 17.6996 22.3335 11.8988C22.3335 6.09805 17.632 1.39648 11.8312 1.39648ZM10.7414 17.4254L11.0273 9.67227H12.6375L12.9234 17.4254H10.7414ZM12.9351 8.0457C12.8742 8.19102 12.7898 8.31992 12.682 8.42773C12.5742 8.53555 12.4476 8.61992 12.3 8.68086C12.1546 8.7418 11.9976 8.77227 11.8335 8.77227C11.6695 8.77227 11.5148 8.7418 11.3671 8.68086C11.2195 8.61992 11.0929 8.53555 10.9851 8.42773C10.8773 8.31992 10.7906 8.19336 10.7273 8.0457C10.664 7.90039 10.6312 7.74102 10.6312 7.57227C10.6312 7.40352 10.664 7.24414 10.7273 7.09883C10.7906 6.95352 10.8773 6.82461 10.9851 6.7168C11.0929 6.60898 11.2195 6.52461 11.3671 6.46367C11.5148 6.40273 11.6695 6.37227 11.8335 6.37227C11.9976 6.37227 12.1523 6.40273 12.3 6.46367C12.4453 6.52461 12.5742 6.60898 12.682 6.7168C12.7898 6.82461 12.8742 6.95117 12.9351 7.09883C12.996 7.24414 13.0265 7.40352 13.0265 7.57227C13.0265 7.74102 12.9984 7.89805 12.9351 8.0457Z" fill="white"/>
</g>
</svg>
