<svg width="24" height="24" viewBox="0 0 24 24" fill="none" xmlns="http://www.w3.org/2000/svg">
<g id="Frame">
<path id="Vector" d="M23.8324 2.8493V2.85047H23.831C23.5519 2.34375 22.9554 1.99219 22.2607 1.99219H6.95882C6.26414 1.99219 5.66624 2.34375 5.38851 2.85047C5.28042 3.04093 5.22229 3.25564 5.21953 3.47461V7.14211H1.74187C0.783042 7.14211 0.00280762 7.80867 0.00280762 8.62734V18.7448C0.00280762 19.5652 0.785151 20.2294 1.74539 20.2294H3.73757C3.79935 20.2377 3.85913 20.2571 3.91406 20.2866L3.92226 21.517C3.92552 21.5918 3.94063 21.6655 3.96703 21.7355C4.00133 21.8469 4.05975 21.9494 4.13812 22.0357C4.47 22.3898 4.9514 22.5938 5.46398 22.5938H5.46609C5.94749 22.5938 6.40359 22.4133 6.73171 22.0985L7.19531 21.7355L8.65804 20.5903C8.73288 20.5247 8.80067 20.4515 8.86031 20.3719C8.94236 20.2962 9.0454 20.2472 9.15585 20.2313H17.0447C17.5432 20.2313 17.9939 20.0498 18.3103 19.7625L18.2993 19.7524H18.3171L17.3742 19.0181L16.7344 18.514H16.7222L14.1206 16.4916H7.30687C3.55523 16.4646 3.45867 13.9434 3.45867 13.9434V8.08594C3.46265 8.05664 3.48046 8.02992 3.48046 7.99898C3.48046 7.96805 3.46265 7.9425 3.45867 7.91227V7.90547H3.45726C3.40406 7.47422 2.96507 7.14469 2.43726 7.14141H5.21953V13.5961C5.22196 13.737 5.24811 13.8764 5.29687 14.0086C5.50781 14.6259 6.16921 15.0797 6.95718 15.0797H14.8465C14.9565 15.0956 15.0591 15.1447 15.1406 15.2203C15.1962 15.3042 15.2652 15.3783 15.345 15.4397L17.272 16.9481C17.6002 17.2629 18.0565 17.4434 18.5376 17.4434C18.6198 17.4406 18.7017 17.4328 18.7828 17.4199C19.2131 17.3627 19.6012 17.1724 19.8642 16.8855C19.9992 16.7465 20.0765 16.5615 20.0808 16.3678L20.0904 15.1376C20.144 15.108 20.2027 15.0886 20.2634 15.0804H22.2572C23.047 15.0804 23.7089 14.6255 23.9212 14.0102C23.9704 13.8767 23.997 13.736 24 13.5938V3.47695C23.9982 3.25692 23.9405 3.04096 23.8324 2.8493ZM14.3787 12.3281C14.1877 12.3247 14.0057 12.2464 13.8719 12.1102C13.7381 11.9739 13.6631 11.7906 13.6631 11.5996C13.6631 11.4086 13.7381 11.2252 13.8719 11.089C14.0057 10.9527 14.1877 10.8744 14.3787 10.871C14.5696 10.8744 14.7516 10.9527 14.8854 11.089C15.0193 11.2252 15.0943 11.4086 15.0943 11.5996C15.0943 11.7906 15.0193 11.9739 14.8854 12.1102C14.7516 12.2464 14.5696 12.3247 14.3787 12.3281ZM14.988 8.95945V9.98367C14.9879 10.0665 14.9708 10.1485 14.9379 10.2245C14.9049 10.3005 14.8568 10.369 14.7965 10.4259C14.7362 10.4827 14.665 10.5266 14.5871 10.5549C14.5093 10.5833 14.4265 10.5955 14.3437 10.5907C14.0294 10.5717 13.7733 10.2874 13.7733 9.97266V8.42156C13.7736 8.26015 13.8379 8.10545 13.9522 7.99143C14.0664 7.8774 14.2212 7.81336 14.3826 7.81336C14.767 7.80983 15.1346 7.65537 15.4062 7.38329C15.6777 7.1112 15.8315 6.74329 15.8342 6.35889C15.837 5.97449 15.6886 5.60441 15.421 5.32844C15.1534 5.05247 14.788 4.89273 14.4037 4.88367C13.5851 4.87219 12.9176 5.43961 12.9173 6.2557C12.9274 6.63211 12.6809 6.87891 12.4062 6.87867C12.0823 6.87867 11.8172 6.63211 11.8244 6.25383C11.8533 4.76016 12.9476 3.62883 14.452 3.6675C15.847 3.70312 17.0346 4.89844 17.0625 6.29391C17.0739 6.90832 16.8743 7.50807 16.497 7.99313C16.1197 8.4782 15.5875 8.81926 14.9892 8.95945H14.988Z" fill="white"/>
</g>
</svg>
