<svg width="24" height="24" viewBox="0 0 24 24" fill="none" xmlns="http://www.w3.org/2000/svg">
<g id="Frame">
<path id="Vector" d="M13.8375 14.1375C13.8375 14.1375 13.125 13.95 12.9 13.8375C12.525 13.575 12.3 13.125 12.3 12.6375C12.3 12.1125 12.7125 11.6625 13.0125 11.3625C13.725 10.5 14.1375 9.3375 14.1375 8.0625C14.1375 5.3625 12.225 3.1875 9.86248 3.1875C7.49998 3.1875 5.58748 5.3625 5.58748 8.0625C5.58748 9.3375 6.03748 10.5 6.71248 11.3625C7.12498 11.625 7.42498 12.1125 7.42498 12.6375C7.42498 13.125 7.19998 13.575 6.82498 13.8375V13.875C6.78748 13.875 6.74998 13.9125 6.71248 13.9125C6.48748 14.0625 6.22498 14.1375 5.92498 14.1375C4.08748 14.7375 2.54998 15.7125 1.64998 16.95H1.68748C1.46248 17.2875 1.34998 17.6625 1.34998 18.075C1.34998 19.2375 2.32498 20.175 3.52498 20.2125H16.2375C17.475 20.2125 18.45 19.275 18.45 18.075C18.45 17.5875 18.2625 17.1375 18 16.8C17.0625 15.6375 15.6375 14.7 13.8375 14.1375Z" fill="white"/>
<path id="Vector_2" d="M22.4625 16.2377C21.6375 15.2252 20.4 14.3627 18.825 13.8752C18.825 13.8752 18.225 13.7252 18 13.6127C17.6625 13.3502 17.475 12.9752 17.475 12.5627C17.475 12.0752 17.85 11.7002 18.1125 11.4377C18.75 10.6877 19.125 9.6377 19.125 8.5127C19.125 6.1502 17.4375 4.2002 15.3375 4.2002C15 4.2002 14.6625 4.2377 14.3625 4.3502C15.075 5.4002 15.4875 6.6752 15.4875 8.0627C15.4875 9.5627 14.9625 11.0252 14.0625 12.1877L14.025 12.2252L13.9875 12.2627L13.9125 12.3377C13.8375 12.4502 13.65 12.6002 13.6125 12.7127C13.6125 12.7502 13.6125 12.7502 13.65 12.7502C13.7625 12.7877 13.9125 12.8252 14.025 12.8627H14.0625L14.25 12.9377C16.2375 13.5752 17.8875 14.6627 19.0125 16.0502C19.5 16.6502 19.7625 17.4002 19.7625 18.1502C19.7625 18.5627 19.6875 18.9377 19.5375 19.3127H20.925C22.0125 19.3127 22.875 18.4877 22.875 17.4377C22.875 16.9502 22.725 16.5752 22.4625 16.2377Z" fill="white"/>
</g>
</svg>
