<svg width="24" height="24" viewBox="0 0 24 24" fill="none" xmlns="http://www.w3.org/2000/svg">
<g id="Frame">
<path id="Vector" d="M12.0001 1.86133C6.40084 1.86133 1.86169 6.40047 1.86169 11.9997C1.86169 17.5989 6.40084 22.138 12.0001 22.138C17.5993 22.138 22.1384 17.5989 22.1384 11.9997C22.1384 6.40047 17.5993 1.86133 12.0001 1.86133ZM11.7797 17.4323C11.6207 17.4323 11.4653 17.3852 11.3331 17.2969C11.2008 17.2086 11.0977 17.0831 11.0369 16.9362C10.976 16.7893 10.96 16.6276 10.991 16.4717C11.022 16.3157 11.0986 16.1724 11.211 16.06C11.3234 15.9475 11.4666 15.871 11.6226 15.8399C11.7785 15.8089 11.9402 15.8248 12.0871 15.8856C12.234 15.9465 12.3596 16.0495 12.4479 16.1817C12.5363 16.3139 12.5834 16.4694 12.5834 16.6284C12.5834 16.8415 12.4987 17.046 12.348 17.1967C12.1973 17.3475 11.9929 17.4322 11.7797 17.4323ZM15.4418 10.0888C15.3868 10.9586 15.1229 12.2041 13.4754 12.9812C12.9755 13.236 12.65 13.5592 12.5072 13.9422C12.4593 14.0657 12.4343 14.1969 12.4334 14.3294C12.4605 14.5221 12.41 14.7176 12.2929 14.8731C12.1758 15.0285 12.0017 15.131 11.809 15.1581C11.6163 15.1852 11.4208 15.1347 11.2654 15.0176C11.1099 14.9005 11.0074 14.7264 10.9803 14.5337C10.9686 14.4494 10.9201 13.9994 11.1324 13.4296C11.3225 12.9198 11.7697 12.2005 12.8215 11.668L12.8415 11.6584C13.73 11.242 13.9308 10.7336 13.9775 9.99648C13.9868 9.84859 14.0089 9.08453 13.5216 8.56539C13.1911 8.21383 12.6683 8.03476 11.9679 8.03476C11.2055 8.03476 10.6526 8.25883 10.3243 8.70062C10.17 8.91054 10.0682 9.15438 10.0276 9.41172L10.0264 9.43398C10.0426 9.59351 10.0061 9.75396 9.92244 9.89077C9.8388 10.0276 9.71264 10.1332 9.56326 10.1915C9.41388 10.2498 9.24951 10.2576 9.09531 10.2136C8.94111 10.1696 8.80557 10.0763 8.70943 9.94797C8.5688 9.76047 8.52193 9.53078 8.5688 9.24812C8.6334 8.76704 8.81071 8.30802 9.0863 7.90844C9.50818 7.29672 10.3519 6.56758 11.967 6.56758C13.0887 6.56758 13.9714 6.90203 14.5904 7.56133C15.4688 8.49648 15.4643 9.73234 15.4418 10.0888Z" fill="white"/>
</g>
</svg>
