<svg width="24" height="24" viewBox="0 0 24 24" fill="none" xmlns="http://www.w3.org/2000/svg">
<g id="Frame 1912055191">
<g id="Frame" clip-path="url(#clip0_10617_4211)">
<path id="Vector" d="M12.9139 13.0039H14.9962V15.4061H12.9139V13.0039Z" fill="white"/>
<path id="Vector_2" d="M20.7466 4.06278C20.6816 3.05945 19.8383 2.28223 18.8022 2.28223H5.13161C4.0955 2.28223 3.25273 3.05945 3.18828 4.06278L2.28106 19.84C2.24884 20.325 2.44328 20.8106 2.76717 21.1672C3.09106 21.5239 3.57717 21.7178 4.06273 21.7178H19.9361C20.455 21.7178 20.9083 21.5233 21.2316 21.1672C21.5888 20.8106 21.7505 20.325 21.7177 19.84L20.7466 4.06278ZM15.8544 5.74723C15.8544 7.88612 14.1377 9.60167 11.9999 9.60167C11.4933 9.60328 10.9913 9.50469 10.5229 9.31157C10.0545 9.11844 9.62893 8.8346 9.27065 8.47636C8.91237 8.11813 8.62846 7.69258 8.43527 7.22421C8.24207 6.75583 8.14341 6.25388 8.14495 5.74723H15.8544ZM16.1527 11.9044V16.5144H11.8055V11.9044H16.1527ZM10.2494 16.3683V20.365H9.1505V16.7767C8.7905 17.5744 8.38217 18.3228 7.94439 18.8383C7.83773 18.4983 7.56495 18.0022 7.38995 17.7106C7.97328 17.0778 8.56662 16.0372 8.94606 15.1044H7.5555V14.025H9.1505V12.8578C8.67384 12.9361 8.19773 12.9939 7.74995 13.0428C7.71106 12.7894 7.56495 12.4011 7.44884 12.1478C8.67384 11.9733 10.0449 11.6811 10.9499 11.3411L11.5627 12.2944C11.1738 12.43 10.7166 12.5467 10.2499 12.6444V14.025H11.5822V15.1044H10.2499V15.2506C10.5705 15.5222 11.4561 16.4467 11.6599 16.69L11.0277 17.6328C10.8622 17.3122 10.5511 16.8156 10.2494 16.3683ZM12.1072 20.3561C11.8738 20.1611 11.3972 19.84 11.1244 19.6844C11.7083 19.1111 12.1749 18.2067 12.4177 17.2922L13.5655 17.555C13.2638 18.6344 12.7 19.695 12.1072 20.3561ZM15.5099 20.3067C15.3355 19.6067 14.8199 18.4789 14.3433 17.6233L15.3644 17.2439C15.8605 18.0606 16.4149 19.1494 16.6088 19.8694L15.5099 20.3067Z" fill="white"/>
</g>
</g>
<defs>
<clipPath id="clip0_10617_4211">
<rect width="20" height="20" fill="white" transform="translate(2 2)"/>
</clipPath>
</defs>
</svg>
