<svg width="25" height="25" viewBox="0 0 25 25" fill="none" xmlns="http://www.w3.org/2000/svg">
<g id="Frame">
<path id="Vector" d="M4.22031 2.21498C5.52531 1.76048 7.26681 1.50098 9.14331 1.50098C11.0183 1.50098 12.7583 1.76198 14.0663 2.21498C14.7143 2.43998 15.3113 2.72948 15.7658 3.09998C16.2113 3.46598 16.6433 4.01798 16.6433 4.74998V6.50498C16.6433 6.68498 16.6433 6.77498 16.6073 6.84248C16.5795 6.89483 16.5367 6.93767 16.4843 6.96548C16.4183 6.99998 16.3268 6.99998 16.1423 6.99998C14.1473 6.99998 12.2318 7.27748 10.7288 7.79648C9.98931 8.05298 9.21231 8.41448 8.57031 8.93948C8.08184 9.33154 7.69108 9.83167 7.42881 10.4005C7.36431 10.546 7.33131 10.618 7.27731 10.651C7.22181 10.6825 7.14981 10.6765 7.00731 10.666C5.25231 10.516 3.76881 10.174 2.65581 9.63698C2.44387 9.53555 2.23802 9.42186 2.03931 9.29648C1.85781 9.18098 1.76631 9.12548 1.70481 9.01148C1.64331 8.90048 1.64331 8.77748 1.64331 8.53148V4.75148C1.64331 4.01798 2.07381 3.46598 2.52081 3.10148C2.97381 2.72948 3.57081 2.43848 4.22031 2.21498ZM3.78681 4.64798C3.99081 4.48298 4.34631 4.28798 4.87431 4.10498C5.91981 3.74048 7.42881 3.50048 9.14331 3.50048C10.8563 3.50048 12.3668 3.74198 13.4123 4.10498C13.9403 4.28648 14.2943 4.48148 14.4983 4.64798C14.5643 4.70198 14.5643 4.79798 14.4983 4.85198C14.2943 5.01998 13.9403 5.21348 13.4123 5.39648C12.3668 5.75798 10.8563 6.00098 9.14331 6.00098C7.42881 6.00098 5.91831 5.75798 4.87431 5.39648C4.34631 5.21348 3.99081 5.01998 3.78681 4.85198C3.77149 4.83975 3.75913 4.82424 3.75063 4.80658C3.74213 4.78892 3.73771 4.76957 3.73771 4.74998C3.73771 4.73038 3.74213 4.71103 3.75063 4.69338C3.75913 4.67572 3.77149 4.6602 3.78681 4.64798ZM7.14231 12.5515C7.14231 12.376 7.14231 12.289 7.08981 12.2305C7.03881 12.1735 6.95031 12.166 6.77331 12.1495C4.93731 11.9845 3.30231 11.614 2.00481 10.9885C1.96822 10.9685 1.9301 10.9514 1.89081 10.9375C1.86476 10.9304 1.83753 10.9288 1.81083 10.9328C1.78414 10.9368 1.75856 10.9462 1.73572 10.9606C1.71287 10.975 1.69327 10.994 1.67814 11.0163C1.663 11.0387 1.65268 11.0639 1.64781 11.0905C1.64331 11.1115 1.64331 11.1445 1.64331 11.2105V14.3305C1.64331 14.596 1.64331 14.728 1.71531 14.848C1.78731 14.968 1.88931 15.0205 2.09481 15.1285C2.25531 15.2125 2.42781 15.2935 2.61381 15.3685C3.67431 15.8005 5.06781 16.0555 6.72081 16.1725C6.91731 16.186 7.01631 16.1935 7.07931 16.1335C7.14231 16.0735 7.14231 15.9745 7.14231 15.775V12.553V12.5515ZM7.08831 17.7535C7.14231 17.812 7.14231 17.902 7.14231 18.0805V20.3005C7.14231 20.836 7.26831 21.304 7.45731 21.7045C7.63131 22.0765 7.71831 22.2625 7.65231 22.3585C7.58481 22.453 7.40181 22.435 7.03731 22.399C6.09433 22.3141 5.1619 22.1372 4.25331 21.871C3.61131 21.673 3.01881 21.418 2.56581 21.088C2.13381 20.773 1.64331 20.2495 1.64331 19.501V17.0215C1.64331 16.9075 1.64331 16.8505 1.65831 16.8145C1.67269 16.7774 1.69807 16.7456 1.73105 16.7233C1.76403 16.7011 1.80303 16.6894 1.84281 16.69C1.88181 16.69 1.93731 16.7125 2.04681 16.7575C3.33381 17.2825 4.95231 17.56 6.76431 17.6785C6.94431 17.6905 7.03431 17.6965 7.08831 17.7535ZM16.1423 8.49998C14.2673 8.49998 12.5273 8.76248 11.2193 9.21398C10.5713 9.43898 9.97431 9.72848 9.51981 10.1005C9.07281 10.4665 8.64231 11.0185 8.64231 11.7505V14.3815C8.64231 14.8345 8.64231 15.061 8.76681 15.286C8.89131 15.511 9.04581 15.6085 9.35481 15.8035C10.8683 16.756 13.2008 17.2495 16.1423 17.2495C19.0838 17.2495 21.4178 16.7545 22.9313 15.8035C23.2388 15.6085 23.3933 15.511 23.5178 15.286C23.6423 15.061 23.6423 14.8345 23.6423 14.3815V11.7505C23.6423 11.0185 23.2118 10.4665 22.7648 10.1005C22.3118 9.72848 21.7148 9.43898 21.0668 9.21548C19.7588 8.76248 18.0188 8.49998 16.1423 8.49998ZM11.8733 11.1055C12.9188 10.744 14.4293 10.5025 16.1423 10.5025C17.8568 10.5025 19.3673 10.7425 20.4113 11.1055C20.9393 11.2885 21.2948 11.4835 21.4988 11.65C21.5648 11.704 21.5648 11.8 21.4988 11.854C21.2948 12.0205 20.9393 12.214 20.4113 12.3985C19.3658 12.7585 17.8568 13.0015 16.1423 13.0015C14.4293 13.0015 12.9188 12.76 11.8733 12.3985C11.3453 12.2155 10.9913 12.0205 10.7873 11.854C10.772 11.8418 10.7596 11.8262 10.7511 11.8086C10.7426 11.7909 10.7382 11.7716 10.7382 11.752C10.7382 11.7324 10.7426 11.713 10.7511 11.6954C10.7596 11.6777 10.772 11.6622 10.7873 11.65C10.9913 11.4835 11.3453 11.2885 11.8733 11.1055Z" fill="white"/>
<path id="Vector_2" d="M23.3348 17.3043C21.4988 18.3108 18.9908 18.7488 16.1423 18.7488C13.2953 18.7488 10.7873 18.3108 8.95133 17.3043C8.81033 17.2278 8.74133 17.1888 8.69183 17.2173C8.64233 17.2473 8.64233 17.3253 8.64233 17.4828V20.2998C8.64233 21.0348 9.08483 21.5808 9.52733 21.9378C9.98333 22.3008 10.5773 22.5828 11.2253 22.8033C12.5303 23.2443 14.2688 23.4993 16.1423 23.4993C18.0173 23.4993 19.7543 23.2443 21.0593 22.8033C21.7073 22.5843 22.3028 22.3008 22.7573 21.9378C23.2013 21.5808 23.6423 21.0348 23.6423 20.2998V17.4828C23.6423 17.3253 23.6423 17.2473 23.5928 17.2173C23.5448 17.1888 23.4743 17.2278 23.3348 17.3043Z" fill="white"/>
</g>
</svg>
