<svg width="30" height="30" viewBox="0 0 30 30" fill="none" xmlns="http://www.w3.org/2000/svg">
<g id="Bold / Video, Audio, Sound / Gallery Add">
<g id="Vector">
<path d="M24.9998 15.6978C24.9983 17.1674 24.9871 18.4165 24.9036 19.4414C24.8067 20.6308 24.6081 21.6246 24.1636 22.45C23.9676 22.814 23.7267 23.1401 23.4334 23.4334C22.601 24.2657 21.5405 24.6428 20.1966 24.8235C18.8835 25 17.2007 25 15.0534 25H14.9466C12.7993 25 11.1165 25 9.80345 24.8235C8.45951 24.6428 7.39902 24.2657 6.56664 23.4334C5.82871 22.6954 5.44763 21.777 5.24498 20.6376C5.04591 19.5184 5.00949 18.1259 5.00192 16.3967C5 15.9569 5 15.4917 5 15.0009V14.9466C4.99999 12.7993 4.99998 11.1165 5.17651 9.80345C5.3572 8.45951 5.73426 7.39902 6.56664 6.56664C7.39902 5.73426 8.45951 5.3572 9.80345 5.17651C10.9711 5.01952 12.4735 5.00215 14.302 5.00024C14.6873 4.99983 15 5.31236 15 5.69767C15 6.08299 14.6872 6.3952 14.3019 6.39561C12.4475 6.39757 11.0675 6.41446 9.98937 6.55941C8.80016 6.7193 8.08321 7.02339 7.5533 7.5533C7.02339 8.08321 6.7193 8.80016 6.55941 9.98937C6.39683 11.1987 6.39535 12.7877 6.39535 15C6.39535 15.2702 6.39535 15.5314 6.39567 15.7844L7.32696 14.9696C8.17465 14.2278 9.45225 14.2704 10.2487 15.0668L14.2392 19.0573C14.8785 19.6966 15.8848 19.7837 16.6245 19.2639L16.9019 19.0689C17.9663 18.3209 19.4064 18.4076 20.3734 19.2779L23.0064 21.6476C23.2714 21.091 23.4288 20.3597 23.5128 19.3281C23.592 18.3561 23.6029 17.1755 23.6044 15.6979C23.6048 15.3126 23.917 15 24.3023 15C24.6876 15 25.0002 15.3125 24.9998 15.6978Z" fill="white"/>
<path fill-rule="evenodd" clip-rule="evenodd" d="M20.5 14C18.3787 14 17.318 14 16.659 13.341C16 12.682 16 11.6213 16 9.5C16 7.37868 16 6.31802 16.659 5.65901C17.318 5 18.3787 5 20.5 5C22.6213 5 23.682 5 24.341 5.65901C25 6.31802 25 7.37868 25 9.5C25 11.6213 25 12.682 24.341 13.341C23.682 14 22.6213 14 20.5 14ZM21.25 7.5C21.25 7.08579 20.9142 6.75 20.5 6.75C20.0858 6.75 19.75 7.08579 19.75 7.5V8.75H18.5C18.0858 8.75 17.75 9.08579 17.75 9.5C17.75 9.91421 18.0858 10.25 18.5 10.25H19.75V11.5C19.75 11.9142 20.0858 12.25 20.5 12.25C20.9142 12.25 21.25 11.9142 21.25 11.5V10.25H22.5C22.9142 10.25 23.25 9.91421 23.25 9.5C23.25 9.08579 22.9142 8.75 22.5 8.75H21.25V7.5Z" fill="white"/>
</g>
<path id="Vector_2" fill-rule="evenodd" clip-rule="evenodd" d="M20.5 14C18.3787 14 17.318 14 16.659 13.341C16 12.682 16 11.6213 16 9.5C16 7.37868 16 6.31802 16.659 5.65901C17.318 5 18.3787 5 20.5 5C22.6213 5 23.682 5 24.341 5.65901C25 6.31802 25 7.37868 25 9.5C25 11.6213 25 12.682 24.341 13.341C23.682 14 22.6213 14 20.5 14ZM21.25 7.5C21.25 7.08579 20.9142 6.75 20.5 6.75C20.0858 6.75 19.75 7.08579 19.75 7.5V8.75H18.5C18.0858 8.75 17.75 9.08579 17.75 9.5C17.75 9.91421 18.0858 10.25 18.5 10.25H19.75V11.5C19.75 11.9142 20.0858 12.25 20.5 12.25C20.9142 12.25 21.25 11.9142 21.25 11.5V10.25H22.5C22.9142 10.25 23.25 9.91421 23.25 9.5C23.25 9.08579 22.9142 8.75 22.5 8.75H21.25V7.5Z" fill="white"/>
</g>
</svg>
