<svg width="24" height="24" viewBox="0 0 24 24" fill="none" xmlns="http://www.w3.org/2000/svg">
<g id="Linear / Essentional, UI / Home Smile Angle">
<path id="Vector" d="M4.29114 12.7663C3.98758 10.6567 3.8358 9.60183 4.26817 8.69996C4.70054 7.79808 5.62083 7.24987 7.46141 6.15345L8.56928 5.4935C10.2407 4.49783 11.0764 4 11.9999 4C12.9233 4 13.759 4.49783 15.4305 5.4935L16.5383 6.15345C18.3789 7.24987 19.2992 7.79808 19.7316 8.69996C20.164 9.60183 20.0122 10.6567 19.7086 12.7663L19.4856 14.3162C19.0957 17.0261 18.9007 18.3811 17.9607 19.1905C17.0206 20 15.642 20 12.8847 20H11.115C8.35777 20 6.97915 20 6.0391 19.1905C5.09905 18.3811 4.90408 17.0261 4.51415 14.3162L4.29114 12.7663Z" stroke="white" stroke-width="1.5"/>
<path id="Vector_2" d="M9.59998 15.2002C10.2803 15.7045 11.1076 16.0002 12 16.0002C12.8923 16.0002 13.7197 15.7045 14.4 15.2002" stroke="white" stroke-width="1.5" stroke-linecap="round"/>
</g>
</svg>
