<svg width="25" height="24" viewBox="0 0 25 24" fill="none" xmlns="http://www.w3.org/2000/svg">
<g id="Linear / Settings, Fine Tuning / Widget 4">
<path id="Rectangle 1880" d="M4.90002 7.60039C4.90002 6.0919 4.90002 5.33765 5.36865 4.86902C5.83728 4.40039 6.59153 4.40039 8.10002 4.40039C9.60852 4.40039 10.3628 4.40039 10.8314 4.86902C11.3 5.33765 11.3 6.0919 11.3 7.60039V16.4004C11.3 17.9089 11.3 18.6631 10.8314 19.1318C10.3628 19.6004 9.60852 19.6004 8.10002 19.6004C6.59153 19.6004 5.83728 19.6004 5.36865 19.1318C4.90002 18.6631 4.90002 17.9089 4.90002 16.4004V7.60039Z" stroke="white" stroke-width="1.5"/>
<path id="Rectangle 1884" d="M13.7 14.7996C13.7 13.2911 13.7 12.5369 14.1686 12.0682C14.6372 11.5996 15.3915 11.5996 16.9 11.5996C18.4084 11.5996 19.1627 11.5996 19.6313 12.0682C20.1 12.5369 20.1 13.2911 20.1 14.7996V16.3996C20.1 17.9081 20.1 18.6624 19.6313 19.131C19.1627 19.5996 18.4084 19.5996 16.9 19.5996C15.3915 19.5996 14.6372 19.5996 14.1686 19.131C13.7 18.6624 13.7 17.9081 13.7 16.3996V14.7996Z" stroke="white" stroke-width="1.5"/>
<path id="Rectangle 1881" d="M13.7 6.80039C13.7 6.05488 13.7 5.68213 13.8217 5.3881C13.9841 4.99605 14.2956 4.68457 14.6877 4.52218C14.9817 4.40039 15.3544 4.40039 16.1 4.40039H17.7C18.4455 4.40039 18.8182 4.40039 19.1122 4.52218C19.5043 4.68457 19.8158 4.99605 19.9782 5.3881C20.1 5.68213 20.1 6.05488 20.1 6.80039C20.1 7.5459 20.1 7.91865 19.9782 8.21268C19.8158 8.60473 19.5043 8.91621 19.1122 9.0786C18.8182 9.20039 18.4455 9.20039 17.7 9.20039H16.1C15.3544 9.20039 14.9817 9.20039 14.6877 9.0786C14.2956 8.91621 13.9841 8.60473 13.8217 8.21268C13.7 7.91865 13.7 7.5459 13.7 6.80039Z" stroke="white" stroke-width="1.5"/>
</g>
</svg>
