<svg width="25" height="24" viewBox="0 0 25 24" fill="none" xmlns="http://www.w3.org/2000/svg">
<g id="Linear / Shopping, Ecommerce / Cart Large Minimalistic">
<path id="Vector" d="M8.64995 16.8002C9.31269 16.8002 9.84995 17.3375 9.84995 18.0002C9.84995 18.6629 9.31269 19.2002 8.64995 19.2002C7.98721 19.2002 7.44995 18.6629 7.44995 18.0002C7.44995 17.3375 7.98721 16.8002 8.64995 16.8002Z" stroke="white" stroke-width="1.5"/>
<path id="Vector_2" d="M15.85 16.8003C16.5128 16.8003 17.05 17.3375 17.05 18.0003C17.05 18.663 16.5128 19.2003 15.85 19.2003C15.1873 19.2003 14.65 18.663 14.65 18.0003C14.65 17.3375 15.1873 16.8003 15.85 16.8003Z" stroke="white" stroke-width="1.5"/>
<path id="Vector_3" d="M4.45897 4.87327L4.70773 4.16573H4.70773L4.45897 4.87327ZM4.49876 4.09226C4.10799 3.95487 3.67984 4.16028 3.54246 4.55105C3.40507 4.94181 3.61048 5.36996 4.00124 5.50735L4.49876 4.09226ZM6.31867 5.85819L6.9379 5.43504V5.43504L6.31867 5.85819ZM7.36017 14.0687L6.81591 14.5848H6.81591L7.36017 14.0687ZM19.1762 10.306L19.9108 10.4574L19.9117 10.4528L19.1762 10.306ZM18.7764 12.2458L19.511 12.3972V12.3972L18.7764 12.2458ZM19.2376 7.75747L18.6432 8.21477L19.2376 7.75747ZM17.9569 14.4401L17.4831 13.8587L17.4831 13.8587L17.9569 14.4401ZM6.61646 10.2078H7.36646V8.03049H6.61646H5.86646V10.2078H6.61646ZM4.45897 4.87327L4.70773 4.16573L4.49876 4.09226L4.25 4.7998L4.00124 5.50735L4.21021 5.58082L4.45897 4.87327ZM11.4 14.7998V15.5498H15.6423V14.7998V14.0498H11.4V14.7998ZM6.61646 8.03049H7.36646C7.36646 7.46805 7.36748 6.98647 7.32488 6.59292C7.28046 6.18251 7.18265 5.79321 6.9379 5.43504L6.31867 5.85819L5.69944 6.28134C5.75248 6.35895 5.80357 6.47696 5.8336 6.75434C5.86544 7.04857 5.86646 7.43526 5.86646 8.03049H6.61646ZM4.45897 4.87327L4.21021 5.58082C4.74766 5.76977 5.08879 5.891 5.33725 6.01291C5.56609 6.1252 5.64861 6.20695 5.69944 6.28134L6.31867 5.85819L6.9379 5.43504C6.69094 5.07365 6.36424 4.84599 5.998 4.66628C5.65137 4.4962 5.21155 4.34286 4.70773 4.16573L4.45897 4.87327ZM6.61646 10.2078H5.86646C5.86646 11.3662 5.87693 12.2179 5.98916 12.8732C6.11066 13.5826 6.35631 14.1 6.81591 14.5848L7.36017 14.0687L7.90444 13.5527C7.67091 13.3064 7.54471 13.07 7.46763 12.62C7.38129 12.1159 7.36646 11.4027 7.36646 10.2078H6.61646ZM11.4 14.7998V14.0498C10.2621 14.0498 9.48819 14.048 8.90863 13.9659C8.35492 13.8873 8.09034 13.7488 7.90444 13.5527L7.36017 14.0687L6.81591 14.5848C7.32313 15.1197 7.96289 15.3467 8.69803 15.451C9.4073 15.5516 10.3067 15.5498 11.4 15.5498V14.7998ZM6.61646 7.2958V8.0458H16.3211V7.2958V6.5458H6.61646V7.2958ZM19.1762 10.306L18.4417 10.1546L18.0419 12.0944L18.7764 12.2458L19.511 12.3972L19.9108 10.4574L19.1762 10.306ZM16.3211 7.2958V8.0458C17.0089 8.0458 17.6026 8.04681 18.0683 8.09887C18.2993 8.1247 18.4638 8.15978 18.573 8.19816C18.6882 8.23865 18.6783 8.26051 18.6432 8.21477L19.2376 7.75747L19.8321 7.30017C19.6193 7.0236 19.3246 6.87234 19.0703 6.78298C18.81 6.69152 18.5202 6.64004 18.235 6.60816C17.6682 6.5448 16.9811 6.5458 16.3211 6.5458V7.2958ZM19.1762 10.306L19.9117 10.4528C20.0462 9.77883 20.1639 9.19783 20.1928 8.72935C20.2227 8.24453 20.1695 7.73885 19.8321 7.30017L19.2376 7.75747L18.6432 8.21477C18.6608 8.23776 18.7158 8.31072 18.6957 8.63694C18.6745 8.9795 18.5839 9.44194 18.4407 10.1592L19.1762 10.306ZM15.6423 14.7998V15.5498C16.2479 15.5498 16.77 15.5511 17.1935 15.4993C17.6374 15.445 18.0594 15.3241 18.4307 15.0215L17.9569 14.4401L17.4831 13.8587C17.4131 13.9158 17.3021 13.9748 17.0113 14.0104C16.7 14.0485 16.2855 14.0498 15.6423 14.0498V14.7998ZM18.7764 12.2458L18.0419 12.0944C17.912 12.7243 17.8271 13.13 17.7269 13.4272C17.6333 13.7049 17.5532 13.8016 17.4831 13.8587L17.9569 14.4401L18.4307 15.0215C18.802 14.7189 19.0055 14.33 19.1484 13.9062C19.2846 13.502 19.3887 12.9903 19.511 12.3972L18.7764 12.2458Z" fill="white"/>
</g>
</svg>
